<?xml version="1.0" encoding="UTF-8"?>
<svg xmlns="http://www.w3.org/2000/svg" version="1.1" viewBox="0 0 386.6 168.2">
 <!-- Generator: Adobe Illustrator 28.6.0, SVG Export Plug-In . SVG Version: 1.2.0 Build 709) -->
 <style type="text/css">
.st0{fill:#000000;}
 </style>
 <g>
 <g id="katman_1">
 <g>
 <rect class="st0" x="233" y="17.7" width="2.8" height="100.7"/>
 <path class="st0" d="M203.9,105.8V32.6c.1,0,13.5,0,13.5,0v-10.7s-34.7,0-34.7,0h0s0,0,0,0c-4.2,0-7.6,3.4-7.7,7.5h0v79.1c-.1,0-.1,0-.1,0h0c0,4.3,3.4,7.7,7.5,7.8h0s34.9,0,34.9,0v-10.7s-13.4,0-13.4,0ZM140.5,116.1h27.9s-22.4-94.2-22.4-94.2h-23s-22.2,94.4-22.2,94.4h12.9s3.5-16.1,3.5-16.1h19.6s3.6,15.8,3.6,15.8ZM133.2,86.2h-12.9s6.5-24.7,6.5-24.7l6.4,24.7ZM52.2,116.2h42.5c0,0,0-10.6,0-10.6h-13.4s.1-83.8.1-83.8h-29.1s-.2,94.4-.2,94.4ZM0,116.1h42.5c0,0,0-10.6,0-10.6h-13.4s0-31.3,0-31.3h10.8s0-10.6,0-10.6h-10.8s0-31.3,0-31.3h13.4s0-10.6,0-10.6H.2c0,0-.2,94.4-.2,94.4ZM262.4,85.6v-39l-8,8.2-8.5-12.9,18.9-19.7h15.1v63.4h-17.5ZM308.3,21.2c17.2,0,25.6,15.5,25.6,32.7s-8.4,32.8-25.6,32.8-25.6-15.6-25.6-32.8,8.4-32.7,25.6-32.7M308.3,38.2c-5.5,0-8,5-8,15.8s2.5,15.9,8,15.9,8-5.1,8-15.9-2.5-15.8-8-15.8M360.9,21.2c17.2,0,25.6,15.5,25.6,32.7s-8.4,32.8-25.6,32.8-25.6-15.6-25.6-32.8,8.4-32.7,25.6-32.7M360.9,38.2c-5.5,0-8,5-8,15.8s2.5,15.9,8,15.9,8-5.1,8-15.9-2.5-15.8-8-15.8M6.7,150.1v-17.7H.3v-4.1h17.4v4.1h-6.3v17.7h-4.7ZM40.2,150.1v-9.2h-10.3v9.2h-4.6v-21.8h4.6v8.6h10.3v-8.6h4.7v21.8h-4.7ZM53.8,150.1v-21.8h15.4v4h-10.8v4.7h10.6v4h-10.6v5.1h10.8v4h-15.4ZM90.4,150.1v-21.8h4.6v17.7h9.2v4.1h-13.9ZM112.1,128.3h4.6v21.8h-4.6v-21.8ZM125.6,150.1v-21.8h15.4v4h-10.8v4.7h10.6v4h-10.6v9.1h-4.6ZM148.9,150.1v-21.8h15.4v4h-10.8v4.7h10.6v4h-10.6v5.1h10.8v4h-15.4ZM195.9,127.9c6.6,0,11.4,4.7,11.4,11.3s-4.8,11.3-11.4,11.3-11.4-4.7-11.4-11.3,4.8-11.3,11.4-11.3M195.9,132c-4,0-6.6,3.1-6.6,7.2s2.6,7.2,6.6,7.2,6.6-3.1,6.6-7.2-2.6-7.2-6.6-7.2M215.1,150.1v-21.8h15.4v4h-10.8v4.7h10.6v4h-10.6v9.1h-4.6ZM252.4,143.5c1.5,1.6,3.9,2.9,6.9,2.9s3.8-1.2,3.8-2.5-1.9-2.2-4.4-2.8c-3.6-.8-8.1-1.8-8.1-6.7s3.1-6.6,8.3-6.6,6.3,1,8.5,3l-2.6,3.4c-1.8-1.6-4.1-2.4-6.3-2.4s-3.2.9-3.2,2.2,1.8,1.9,4.4,2.5c3.6.8,8.2,1.9,8.2,6.7s-2.8,7-8.7,7-7.2-1.4-9.3-3.5l2.6-3.5ZM285.9,127.9c6.6,0,11.4,4.7,11.4,11.3s-4.8,11.3-11.4,11.3-11.4-4.7-11.4-11.3,4.8-11.3,11.4-11.3M285.9,132c-4,0-6.6,3.1-6.6,7.2s2.6,7.2,6.6,7.2,6.6-3.1,6.6-7.2-2.6-7.2-6.6-7.2M305.2,128.3h4.7v13c0,3,1.7,5.1,5.1,5.1s5-2.1,5-5.1v-13h4.7v13.1c0,5.4-3.1,9.1-9.7,9.1s-9.8-3.7-9.8-9.1v-13.1ZM348.7,150.1l-10.4-14.7v14.7h-4.6v-21.8h4.8l10.1,14.1v-14.1h4.6v21.8h-4.5ZM362.1,150.1v-21.8h8.6c6.8,0,11.6,4.4,11.6,10.9s-4.7,10.9-11.6,10.9h-8.6ZM366.7,146h4c4.3,0,6.8-3.1,6.8-6.8s-2.4-6.8-6.8-6.8h-4v13.6ZM269,116.1v-8.8s-8.3-12.6-8.3-12.6h5.2s5.4,8.6,5.4,8.6l5.3-8.6h5.2s-8.2,12.7-8.2,12.7v8.8s-4.5,0-4.5,0ZM288.3,116v-21.5c0,0,15.1,0,15.1,0v3.9s-10.6,0-10.6,0v4.7s10.4,0,10.4,0v3.9s-10.4,0-10.4,0v5s10.6,0,10.6,0v4s-15.2,0-15.2,0ZM326.6,115.9l-1.4-3.7h-9.6s-1.3,3.7-1.3,3.7h-5s8.2-21.5,8.2-21.5h5.7s8.3,21.4,8.3,21.4h-5ZM320.4,98.4l-3.5,9.9h7.1s-3.6-9.9-3.6-9.9ZM350.2,115.9l-4.2-7.7h-3.3s0,7.7,0,7.7h-4.6s0-21.4,0-21.4h10c4.5,0,7.2,2.9,7.2,6.9,0,3.8-2.4,5.8-4.7,6.4l4.8,8.2h-5.2ZM347.4,98.3h-4.8s0,5.9,0,5.9h4.8c1.8,0,3.2-1.2,3.2-3,0-1.8-1.4-3-3.2-2.9M364.3,109.3c1.5,1.6,3.9,2.9,6.8,2.9,2.5,0,3.7-1.2,3.7-2.4,0-1.6-1.9-2.1-4.4-2.7-3.5-.8-8-1.7-8-6.5,0-3.6,3.1-6.5,8.1-6.5,3.4,0,6.2,1,8.4,3l-2.5,3.4c-1.7-1.6-4.1-2.3-6.2-2.3-2.1,0-3.1.9-3.1,2.2,0,1.4,1.8,1.9,4.3,2.5,3.5.8,8,1.8,8.1,6.6,0,3.9-2.8,6.9-8.6,6.9-4.1,0-7.1-1.4-9.1-3.4l2.5-3.5Z"/>
 </g>
 </g>
 </g>
</svg>
