<svg xmlns="http://www.w3.org/2000/svg" xmlns:xlink="http://www.w3.org/1999/xlink" width="184" height="80" viewBox="0 0 184 80">
  <defs>
    <clipPath id="clip-Technics-logo-184">
      <rect width="184" height="80"/>
    </clipPath>
  </defs>
  <g id="Technics-logo-184" clip-path="url(#clip-Technics-logo-184)">
    <g id="组_2" data-name="组 2" transform="translate(-120.254 -366.953)">
      <path id="路径_10" data-name="路径 10" d="M258.977,421.228h13.367v-2.742c-.66-.022-1.318-.041-1.978-.059a1.4,1.4,0,0,1-1.363-1.4v-7.743a3.007,3.007,0,0,1,1.078-2.019,2.6,2.6,0,0,1,.33-.246,4.856,4.856,0,0,1,2.8-.753,4.217,4.217,0,0,1,1.561.325,2.881,2.881,0,0,1,1.829,2.678v7.758a1.4,1.4,0,0,1-1.364,1.4c-.654.018-1.311.036-1.966.059v2.742h13.429v-2.742c-.694-.022-1.391-.041-2.085-.059a1.4,1.4,0,0,1-1.363-1.4v-8.034a5.731,5.731,0,0,0-3.733-5.422,11.6,11.6,0,0,0-7.073-.513,7.7,7.7,0,0,0-3.468,1.745v-8.764H258.977v2.7c.665.032,1.329.065,2,.093a1.432,1.432,0,0,1,1.359,1.437v16.757a1.4,1.4,0,0,1-1.364,1.4c-.668.018-1.331.036-1.994.059Z" transform="translate(-66.527 -1)" fill="#5f5e5e"/>
      <path id="路径_11" data-name="路径 11" d="M369.428,412.472h1.97a1.4,1.4,0,0,1,1.4,1.4v9.7a1.412,1.412,0,0,1-1.372,1.415l-1.982.053v2.76h13.416v-2.756c-.683-.021-1.361-.039-2.041-.057a1.412,1.412,0,0,1-1.375-1.411V409.73H369.428Z" transform="translate(-119.496 -7.566)" fill="#5f5e5e"/>
      <path id="路径_12" data-name="路径 12" d="M130.336,417.833l-3.243.14v2.921h15.713v-2.921l-3.244-.14a1.288,1.288,0,0,1-1.232-1.289q0-8.6,0-17.2H144.4a1.346,1.346,0,0,1,1.348,1.293q.066,1.467.13,2.935h3.77v-8.231H120.254v8.231h3.767q.069-1.467.134-2.935a1.345,1.345,0,0,1,1.348-1.293h6.07q0,8.6,0,17.2A1.289,1.289,0,0,1,130.336,417.833Z" transform="translate(0 -0.666)" fill="#5f5e5e"/>
      <path id="路径_13" data-name="路径 13" d="M452.237,414.062c.051.534.1,1.075.149,1.614h3.273v-6.095a42.068,42.068,0,0,0-7.741-.921,24.571,24.571,0,0,0-4.7.274,8.669,8.669,0,0,0-2.7.836,8.25,8.25,0,0,0-1.825,1.219,4.26,4.26,0,0,0-.531,6,4.2,4.2,0,0,0,1.292,1.047,43.313,43.313,0,0,0,5.574,1.968c1.272.372,2.342.72,3.587,1.175a1.4,1.4,0,0,1,.675,1.856,1.325,1.325,0,0,1-.543.606,4.688,4.688,0,0,1-1.374.6,8.852,8.852,0,0,1-5.077-.224A2.239,2.239,0,0,1,440.75,422c-.037-.592-.071-1.187-.107-1.783h-3.126v6.032a27.224,27.224,0,0,0,9.33,1.272,15.113,15.113,0,0,0,6.248-1.486,5.768,5.768,0,0,0,1.765-1.254,3.958,3.958,0,0,0,.414-5.587,3.666,3.666,0,0,0-1.144-.911,20.014,20.014,0,0,0-2.6-1.1c-2.46-.767-4.542-1.407-7-2.169a1.477,1.477,0,0,1-.754-1.945,1.45,1.45,0,0,1,.9-.816,9.016,9.016,0,0,1,6.108-.083A2.177,2.177,0,0,1,452.237,414.062Z" transform="translate(-151.983 -7.045)" fill="#5f5e5e"/>
      <path id="路径_14" data-name="路径 14" d="M374.885,399.021l.132.13a4.967,4.967,0,0,0,6.925-.191,2.49,2.49,0,0,0,.034-3.444,4.924,4.924,0,0,0-6.963-.234c-.012,0-.012.008-.016.012A2.637,2.637,0,0,0,374.885,399.021Z" transform="translate(-121.769 0)" fill="#5f5e5e"/>
      <path id="路径_15" data-name="路径 15" d="M314.184,412.025h.048l2.034.1a1.387,1.387,0,0,1,1.289,1.391v9.618a1.411,1.411,0,0,1-1.37,1.411c-.663.018-1.322.036-1.985.053v2.756h13.38V424.6c-.681-.02-1.359-.041-2.038-.059a1.41,1.41,0,0,1-1.369-1.411V415.4a2.7,2.7,0,0,1,1.6-2.507,5.373,5.373,0,0,1,3.53-.395,3.217,3.217,0,0,1,2.57,3.21v7.42a1.411,1.411,0,0,1-1.37,1.411q-.992.027-1.987.053v2.756h13.415V424.6q-1.027-.03-2.053-.059a1.407,1.407,0,0,1-1.368-1.411v-7.91a5.509,5.509,0,0,0-2.021-4.253,10.644,10.644,0,0,0-12.949.063v-1.71h-9.351Z" transform="translate(-93.003 -7.121)" fill="#5f5e5e"/>
      <path id="路径_16" data-name="路径 16" d="M236.035,416.468H239.5v-6.1a30.554,30.554,0,0,0-4.173-.816,26.051,26.051,0,0,0-9.688.478,7.752,7.752,0,0,0-5.921,5.91,10.591,10.591,0,0,0,.339,6.172,7.655,7.655,0,0,0,5.2,4.954,18.438,18.438,0,0,0,8.3.6,9.849,9.849,0,0,0,4.287-2.078A5.664,5.664,0,0,0,240,421.06h-4.311a3.663,3.663,0,0,1-1.82,3,5.924,5.924,0,0,1-.927.372,5.175,5.175,0,0,1-4.1-.287,4.085,4.085,0,0,1-1.876-2.559,11.061,11.061,0,0,1,.209-6.44,3.546,3.546,0,0,1,2.374-2.35,6.611,6.611,0,0,1,5.028.341,2.37,2.37,0,0,1,1.343,1.728A5.97,5.97,0,0,1,236.035,416.468Z" transform="translate(-47.552 -7.361)" fill="#5f5e5e"/>
      <path id="路径_17" data-name="路径 17" d="M411.7,416.468h3.468v-6.1a30.732,30.732,0,0,0-4.173-.816,26.063,26.063,0,0,0-9.691.478,7.748,7.748,0,0,0-5.919,5.91,10.573,10.573,0,0,0,.335,6.172,7.663,7.663,0,0,0,5.2,4.954,18.459,18.459,0,0,0,8.3.6,9.9,9.9,0,0,0,4.293-2.078,5.672,5.672,0,0,0,2.149-4.521h-4.31a3.678,3.678,0,0,1-1.818,3,6.145,6.145,0,0,1-.926.372,5.19,5.19,0,0,1-4.1-.287,4.106,4.106,0,0,1-1.874-2.559,11,11,0,0,1,.214-6.44,3.52,3.52,0,0,1,2.368-2.35,6.616,6.616,0,0,1,5.029.341,2.365,2.365,0,0,1,1.343,1.728A5.949,5.949,0,0,1,411.7,416.468Z" transform="translate(-131.797 -7.361)" fill="#5f5e5e"/>
      <path id="路径_18" data-name="路径 18" d="M190.025,426.746a17,17,0,0,1-3.7.807,16.551,16.551,0,0,1-9.266-1.57,8.287,8.287,0,0,1-4.827-7.318,7.974,7.974,0,0,1,2.217-6.678,8.889,8.889,0,0,1,3.349-2.247,16.307,16.307,0,0,1,12.369-.091,8.364,8.364,0,0,1,5.05,10.2h-15.6a3.857,3.857,0,0,0,2.224,3.879,6.974,6.974,0,0,0,5.06.452,3.821,3.821,0,0,0,2.851-3.462h5.178A7.088,7.088,0,0,1,190.025,426.746Zm-4.269-14.653a9.7,9.7,0,0,0-1.128-.2,6.857,6.857,0,0,0-.937,0,4.514,4.514,0,0,0-4.1,4.383h9.359A4.136,4.136,0,0,0,185.756,412.092Z" transform="translate(-24.897 -6.965)" fill="#5f5e5e"/>
    </g>
  </g>
</svg>
