<svg width="160" height="19" viewBox="0 0 160 19" fill="none" xmlns="http://www.w3.org/2000/svg">
<path d="M34.0298 16.5296H25.0511C25.0381 16.2333 25.0143 15.9675 25.0143 15.7016C25.0143 13.2046 25.0143 10.7069 25.0143 8.20845C25.0256 7.90931 25.0118 7.60975 24.9731 7.31294C24.8475 6.59391 24.4599 6.05354 23.7496 5.84655C23.0392 5.63955 22.4762 5.87923 22.0041 6.40216C21.402 7.06672 21.1985 7.87073 21.2006 8.75099C21.2006 11.0977 21.1876 13.4465 21.2114 15.7931C21.2114 16.3466 21.1183 16.5884 20.486 16.5775C18.277 16.5383 16.0681 16.5645 13.8591 16.5601C13.6664 16.5601 13.4737 16.5296 13.2095 16.5056V15.6668C13.2095 13.1175 13.2095 10.5704 13.2095 8.02325C13.2212 7.6258 13.1587 7.22967 13.0254 6.85537C12.5511 5.69838 11.2539 5.4282 10.3335 6.27143C9.57986 6.96213 9.37846 7.88162 9.37412 8.85776C9.37412 11.1303 9.37412 13.4029 9.37412 15.6755V16.5187H0.313138C0.456069 16.205 0.560023 15.974 0.661807 15.743C0.904358 15.1939 1.34398 14.6536 1.35697 14.0936C1.42627 11.1725 1.42627 8.25058 1.35697 5.32797C1.34398 4.78979 0.943337 4.25814 0.707284 3.73303C0.601168 3.49553 0.453908 3.27765 0.256836 2.92685H9.35247V4.64598C9.47777 4.56432 9.59784 4.47481 9.71197 4.37798C10.1763 3.8884 10.7374 3.50221 11.3593 3.24438C11.9811 2.98654 12.6497 2.86278 13.3221 2.88108C14.1883 2.88108 15.0546 2.91377 15.9208 2.87019C17.9045 2.77432 19.5353 3.38441 20.5878 5.12751C21.1855 4.60894 21.7052 4.03808 22.3311 3.63498C23.886 2.63923 28.9666 2.51504 30.5929 3.40402C32.1674 4.2625 32.9751 5.62866 32.9903 7.42842C33.012 9.5768 33.0055 11.7252 32.9903 13.8735C32.9903 14.6078 33.1289 15.2441 33.7071 15.7583C33.8717 15.9021 33.8999 16.2006 34.0298 16.5296Z" fill="url(#paint0_linear_1933_20225)"/>
<path d="M104.673 2.92467H113.751V4.64816C113.967 4.46732 114.104 4.37798 114.214 4.26904C114.655 3.82723 115.179 3.47784 115.755 3.24109C116.332 3.00435 116.949 2.88495 117.571 2.8898C118.712 2.87891 119.856 2.86148 120.997 2.8898C123.726 2.95735 125.545 4.78761 125.584 7.54825C125.616 9.64434 125.601 11.7426 125.584 13.8409C125.584 14.5969 125.697 15.2659 126.322 15.7866C126.483 15.9195 126.496 16.2224 126.602 16.5318H117.597V15.706C117.597 13.1327 117.597 10.5616 117.597 7.99057C117.605 7.66739 117.564 7.34487 117.476 7.03403C117.043 5.70927 115.613 5.36719 114.637 6.34987C113.961 7.02968 113.77 7.8947 113.77 8.82072V16.5122H104.718C104.883 16.181 105.008 15.9522 105.112 15.7125C105.348 15.1591 105.762 14.6057 105.775 14.0435C105.84 11.1485 105.84 8.25276 105.775 5.3563C105.762 4.81594 105.37 4.28211 105.138 3.75264C105.017 3.5086 104.872 3.28636 104.673 2.92467Z" fill="url(#paint1_linear_1933_20225)"/>
<path d="M57.4316 16.534H48.4204C48.3966 16.0829 48.3749 15.6472 48.3468 15.0981C47.1654 15.9157 45.7929 16.4098 44.3642 16.5318C42.4844 16.7083 40.6393 16.5797 38.9133 15.7278C37.4104 14.9848 36.3882 13.8627 36.4033 12.0673C36.4185 10.2719 37.4298 9.07565 38.9783 8.47428C40.2024 8.01027 41.487 7.7277 42.7919 7.63541C44.6154 7.49814 46.4562 7.60055 48.3598 7.60055C48.3598 6.58737 47.97 5.85745 47.1817 5.35848C46.1617 4.70482 45.029 4.6242 43.8791 4.82466C42.0989 5.13406 40.3275 5.47832 38.5256 5.8313V3.04015C38.844 3.14909 39.1385 3.1796 39.3378 3.3343C39.6107 3.55269 39.9336 3.69881 40.2771 3.75932C40.6206 3.81984 40.9737 3.79283 41.3041 3.68074C44.7829 2.71162 48.4207 2.46184 51.998 2.94646C54.8285 3.31469 56.3726 5.03818 56.3769 7.92738C56.3769 9.92542 56.3878 11.9235 56.3769 13.9215C56.3769 14.6296 56.5199 15.2419 57.0743 15.7387C57.2345 15.8868 57.2757 16.1766 57.4316 16.534ZM48.3728 9.4112H46.924C46.7008 9.40355 46.4774 9.40792 46.2548 9.42427C45.9009 9.45883 45.5602 9.57711 45.2604 9.76944C44.9607 9.96178 44.7104 10.2227 44.53 10.531C44.3496 10.8392 44.2442 11.186 44.2224 11.543C44.2006 11.9001 44.2631 12.2572 44.4047 12.5853C44.5463 12.9134 44.7631 13.2032 45.0372 13.4309C45.3114 13.6587 45.6352 13.818 45.9822 13.8958C46.3292 13.9736 46.6896 13.9677 47.0339 13.8787C47.3782 13.7896 47.6968 13.6199 47.9635 13.3833C48.1684 13.211 48.307 12.9721 48.3554 12.7078C48.3966 11.6402 48.3728 10.5791 48.3728 9.4112Z" fill="url(#paint2_linear_1933_20225)"/>
<path d="M92.8353 7.60273C92.6728 5.79861 91.5186 4.6852 89.6128 4.78761C87.8197 4.88566 86.0417 5.30836 84.2594 5.60469C83.8522 5.67224 83.4538 5.80297 82.9946 5.92063V3.05104C83.3 3.14909 83.601 3.17088 83.7981 3.32776C84.4261 3.82673 85.0975 3.86595 85.8338 3.66113C89.2877 2.71024 92.8963 2.4672 96.4454 2.94646C99.291 3.31905 100.822 5.02293 100.829 7.91431C100.829 9.88837 100.839 11.8603 100.829 13.8322C100.829 14.5904 100.969 15.255 101.578 15.7801C101.74 15.9217 101.764 16.2158 101.881 16.5274H92.8916V15.0349C91.724 15.8669 90.3611 16.3784 88.9371 16.5187C87.0054 16.7192 85.117 16.5863 83.3433 15.7125C81.8577 14.9804 80.8637 13.8518 80.8528 12.1108C80.842 10.3699 81.8187 9.27829 83.2545 8.5244C84.4791 7.90452 85.8339 7.58991 87.2046 7.60708C89.0584 7.58965 90.9165 7.60273 92.8353 7.60273ZM92.8677 9.34583C91.8846 9.4417 90.9187 9.41991 90.0308 9.65741C89.1429 9.89491 88.6621 10.8514 88.7097 11.7818C88.7281 12.2167 88.8711 12.6369 89.1214 12.992C89.3717 13.347 89.7186 13.6216 90.1205 13.7828C90.5224 13.944 90.962 13.9848 91.3864 13.9004C91.8108 13.816 92.2019 13.6099 92.5126 13.307C92.7103 13.0966 92.8303 12.8244 92.8526 12.5357C92.8829 11.5421 92.8591 10.5508 92.8591 9.3393L92.8677 9.34583Z" fill="url(#paint3_linear_1933_20225)"/>
<path d="M70.9862 6.84665C70.5211 7.23241 70.1409 7.71138 69.8699 8.25307C69.5988 8.79476 69.4428 9.38729 69.4118 9.99296C69.3404 11.1107 69.492 12.2546 69.3404 13.3572C69.1693 14.5904 69.8991 15.4576 70.4947 16.5231H60.3054C60.4808 16.1788 60.6107 15.9478 60.7168 15.706C60.9529 15.1787 61.3665 14.6514 61.3665 14.1154C61.4315 11.2189 61.4315 8.32321 61.3665 5.4282C61.3535 4.86822 60.9334 4.31479 60.6952 3.76353C60.5956 3.54565 60.4635 3.32776 60.2794 2.99221H69.3382V5.5829L69.9749 4.9946C71.4627 3.5603 73.4544 2.77693 75.5146 2.81572C76.3854 2.8287 77.2335 3.09762 77.9544 3.58937C78.6753 4.08112 79.2375 4.77423 79.5718 5.58338C79.9062 6.39253 79.998 7.28238 79.8361 8.14339C79.6742 9.0044 79.2655 9.79896 78.6605 10.4293C78.0554 11.0596 77.2804 11.4981 76.4308 11.6909C75.5812 11.8836 74.6941 11.8222 73.8787 11.5142C73.0633 11.2062 72.3553 10.6649 71.8418 9.95718C71.3282 9.24943 71.0316 8.40603 70.9884 7.53082C70.9797 7.3478 70.9862 7.17566 70.9862 6.84665Z" fill="url(#paint4_linear_1933_20225)"/>
<path d="M159.929 2.92467C157.86 6.86191 155.859 10.6684 153.78 14.6296C154.943 14.6296 156.007 14.5098 157.029 14.6601C158.181 14.8301 158.88 13.952 159.879 13.5424V17.5885C159.569 17.4491 159.272 17.399 159.103 17.2247C158.614 16.7148 158.038 16.5558 157.356 16.5558C153.014 16.5688 148.669 16.5558 144.325 16.5558H143.342C145.389 12.6338 147.385 8.82072 149.473 4.82247C147.325 5.05561 145.211 4.1492 143.463 6.047L143.385 5.74632V1.87663C143.684 1.99429 143.977 2.02043 144.115 2.17949C144.637 2.78957 145.298 2.93338 146.064 2.9312C150.383 2.9312 154.701 2.9312 159.021 2.9312L159.929 2.92467Z" fill="url(#paint5_linear_1933_20225)"/>
<path d="M140.046 4.81812L138.491 4.89002V12.9061C138.491 14.4313 138.563 14.5141 140.052 14.6928V16.5035C139.855 16.5231 139.665 16.5601 139.474 16.5601C137.688 16.5601 135.903 16.5732 134.116 16.5601C131.931 16.5405 130.543 15.1373 130.535 12.9388C130.535 10.542 130.535 8.14527 130.535 5.7485V4.88566L128.967 4.80723V2.95518L130.522 2.88109V0.593262H138.472V2.88109L140.05 2.95953L140.046 4.81812Z" fill="url(#paint6_linear_1933_20225)"/>
<defs>
<linearGradient id="paint0_linear_1933_20225" x1="102.667" y1="-13.3333" x2="114" y2="22.6667" gradientUnits="userSpaceOnUse">
<stop stop-color="#AA7460"/>
<stop offset="0.49" stop-color="#E9DDD0"/>
<stop offset="1" stop-color="#BB8673"/>
<stop offset="1" stop-color="#CDA797"/>
</linearGradient>
<linearGradient id="paint1_linear_1933_20225" x1="102.667" y1="-13.3333" x2="114" y2="22.6667" gradientUnits="userSpaceOnUse">
<stop stop-color="#AA7460"/>
<stop offset="0.49" stop-color="#E9DDD0"/>
<stop offset="1" stop-color="#BB8673"/>
<stop offset="1" stop-color="#CDA797"/>
</linearGradient>
<linearGradient id="paint2_linear_1933_20225" x1="102.667" y1="-13.3333" x2="114" y2="22.6667" gradientUnits="userSpaceOnUse">
<stop stop-color="#AA7460"/>
<stop offset="0.49" stop-color="#E9DDD0"/>
<stop offset="1" stop-color="#BB8673"/>
<stop offset="1" stop-color="#CDA797"/>
</linearGradient>
<linearGradient id="paint3_linear_1933_20225" x1="102.667" y1="-13.3333" x2="114" y2="22.6667" gradientUnits="userSpaceOnUse">
<stop stop-color="#AA7460"/>
<stop offset="0.49" stop-color="#E9DDD0"/>
<stop offset="1" stop-color="#BB8673"/>
<stop offset="1" stop-color="#CDA797"/>
</linearGradient>
<linearGradient id="paint4_linear_1933_20225" x1="102.667" y1="-13.3333" x2="114" y2="22.6667" gradientUnits="userSpaceOnUse">
<stop stop-color="#AA7460"/>
<stop offset="0.49" stop-color="#E9DDD0"/>
<stop offset="1" stop-color="#BB8673"/>
<stop offset="1" stop-color="#CDA797"/>
</linearGradient>
<linearGradient id="paint5_linear_1933_20225" x1="102.667" y1="-13.3333" x2="114" y2="22.6667" gradientUnits="userSpaceOnUse">
<stop stop-color="#AA7460"/>
<stop offset="0.49" stop-color="#E9DDD0"/>
<stop offset="1" stop-color="#BB8673"/>
<stop offset="1" stop-color="#CDA797"/>
</linearGradient>
<linearGradient id="paint6_linear_1933_20225" x1="102.667" y1="-13.3333" x2="114" y2="22.6667" gradientUnits="userSpaceOnUse">
<stop stop-color="#AA7460"/>
<stop offset="0.49" stop-color="#E9DDD0"/>
<stop offset="1" stop-color="#BB8673"/>
<stop offset="1" stop-color="#CDA797"/>
</linearGradient>
</defs>
</svg>
